<?xml version="1.0" encoding="utf-8"?>
<!-- Generator: Adobe Illustrator 26.2.1, SVG Export Plug-In . SVG Version: 6.00 Build 0)  -->
<svg version="1.1" id="Réteg_1" xmlns="http://www.w3.org/2000/svg" xmlns:xlink="http://www.w3.org/1999/xlink" x="0px" y="0px"
	 viewBox="0 0 1080 1080" style="enable-background:new 0 0 1080 1080;" xml:space="preserve">
<style type="text/css">
	.st0{fill:#FFFFFF;}
	.st1{fill:none;stroke:#1DDDDD;stroke-width:45;stroke-linecap:round;stroke-miterlimit:10;}
	.st2{fill:none;stroke:#FFFFFF;stroke-width:45;stroke-linecap:round;stroke-miterlimit:10;}
</style>
<circle class="st0" cx="804.5" cy="577.2" r="65.5"/>
<path class="st1" d="M948.7,289.5l2.9,111.4c0.9,33.5,0.3,34.1-33.2,35l-113.8,3"/>
<path class="st2" d="M822.9,552.6c-43.4,148.5-147.8,271-284.2,338.6h-0.1c-181.5-89.9-306.3-277.1-306.3-493.4
	c0-26.5,1.9-52.9,5.7-79.2l2.2-1.5c84-51.9,180.6-80.4,286.6-80.4c117.7,0,223.1,34.4,312.5,97.3"/>
<path class="st1" d="M670.3,386.3c-42.2-20.2-89.1-31-139.8-31c-62.9,0-120.2,16.9-170.1,47.7l-1.3,0.9c-2.2,15.6-3.4,31.3-3.4,47
	c0,128.4,74,239.4,181.7,292.8c47.4-23.5,88.4-58.2,119.6-101"/>
</svg>
