<?xml version="1.0" encoding="utf-8"?>
<!-- Generator: Adobe Illustrator 26.2.1, SVG Export Plug-In . SVG Version: 6.00 Build 0)  -->
<svg version="1.1" id="Réteg_1" xmlns="http://www.w3.org/2000/svg" xmlns:xlink="http://www.w3.org/1999/xlink" x="0px" y="0px"
	 viewBox="0 0 1080 1080" style="enable-background:new 0 0 1080 1080;" xml:space="preserve">
<style type="text/css">
	.st0{fill:none;stroke:#1DDDDD;stroke-width:45;stroke-linecap:round;stroke-miterlimit:10;}
	.st1{fill:none;stroke:#000000;stroke-width:45;stroke-linecap:round;stroke-miterlimit:10;}
</style>
<circle cx="786.5" cy="563.9" r="60"/>
<path class="st0" d="M918.6,300.4l2.7,102c0.8,30.7,0.3,31.3-30.4,32.1l-104.2,2.7"/>
<path class="st1" d="M803.4,541.3c-39.8,136.1-136.5,248.3-261.5,310.3l0,0l-0.1,0c-166.3-82.4-279.5-253.8-279.5-452
	c0-24.6,1.8-48.9,5.2-72.5l2.1-1.4C346.4,278.1,435,252,532.1,252c107.8,0,204.4,31.5,286.3,89.1"/>
<path class="st0" d="M651.4,624c-28.4,39-65.9,70.9-109.5,92.5l0,0l-0.1,0c-98.7-48.9-166.5-150.6-166.5-268.2c0-14.6,1-29,3.1-43
	l1.2-0.8c45.6-28.2,98.2-43.7,155.8-43.7c46.5,0,89.4,9.9,128.1,28.4"/>
<ellipse transform="matrix(0.1602 -0.9871 0.9871 0.1602 1117.4739 2441.2334)" cx="1993.4" cy="563.9" rx="60" ry="60"/>
<path class="st1" d="M2125.4,300.4l2.7,102c0.8,30.7,0.3,31.3-30.4,32.1l-104.2,2.7"/>
<path class="st1" d="M2010.3,541.3c-39.8,136.1-135.4,248.3-260.4,310.2h-0.1c-166.3-82.4-280.6-253.8-280.6-452
	c0-24.6,1.8-48.9,5.2-72.5l2.1-1.4c76.9-47.5,165.5-73.7,262.5-73.7c107.8,0,204.4,31.5,286.3,89.1"/>
<path class="st1" d="M1858.3,624c-28.4,39-65.9,70.9-109.5,92.5h-0.1c-98.7-48.9-166.5-150.6-166.5-268.2c0-14.6,1-29,3.1-43
	l1.2-0.8c45.6-28.2,98.2-43.7,155.8-43.7c46.5,0,89.4,9.9,128.1,28.4"/>
</svg>
