<?xml version="1.0" encoding="UTF-8" standalone="no"?>
<!-- Generator: Adobe Illustrator 26.2.1, SVG Export Plug-In . SVG Version: 6.00 Build 0)  -->

<svg
   version="1.1"
   id="Réteg_1"
   x="0px"
   y="0px"
   viewBox="0 0 1080 1080"
   style="enable-background:new 0 0 1080 1080;"
   xml:space="preserve"
   sodipodi:docname="logo_blackonly.svg"
   inkscape:version="1.1.1 (3bf5ae0d25, 2021-09-20)"
   xmlns:inkscape="http://www.inkscape.org/namespaces/inkscape"
   xmlns:sodipodi="http://sodipodi.sourceforge.net/DTD/sodipodi-0.dtd"
   xmlns="http://www.w3.org/2000/svg"
   xmlns:svg="http://www.w3.org/2000/svg"><defs
   id="defs30" /><sodipodi:namedview
   id="namedview28"
   pagecolor="#ffffff"
   bordercolor="#666666"
   borderopacity="1.0"
   inkscape:pageshadow="2"
   inkscape:pageopacity="0.0"
   inkscape:pagecheckerboard="0"
   showgrid="false"
   inkscape:zoom="0.80833333"
   inkscape:cx="208.45361"
   inkscape:cy="539.38144"
   inkscape:window-width="2560"
   inkscape:window-height="1403"
   inkscape:window-x="0"
   inkscape:window-y="0"
   inkscape:window-maximized="1"
   inkscape:current-layer="Réteg_1" />
<style
   type="text/css"
   id="style17">
	.st0{fill:none;stroke:#000000;stroke-width:45;stroke-linecap:round;stroke-miterlimit:10;}
</style>
<circle
   cx="837.58167"
   cy="567.53986"
   r="76.670845"
   id="circle19"
   style="stroke-width:1.27785" />
<path
   class="st0"
   d="m 1006.3853,230.827 3.4502,130.34044 c 1.0223,39.22992 0.3834,39.99663 -38.84653,41.0189 l -133.15171,3.45019"
   id="path21" />
<path
   class="st0"
   d="M 859.17731,537.3826 C 808.31899,711.29764 684.87892,854.67212 525.148,933.89866 h -0.12779 -0.12778 C 312.3864,828.60403 167.60628,609.58098 167.60628,356.31162 c 0,-31.43505 2.30013,-62.48674 6.64481,-92.64394 l 2.68348,-1.78899 c 98.26647,-60.82553 211.48375,-94.17735 335.56274,-94.17735 137.75195,0 261.19201,40.25219 365.84772,113.85621"
   id="path23" />
<path
   class="st0"
   d="m 664.9445,644.33843 c -36.29086,49.83605 -84.21014,90.59939 -139.92429,118.20089 v 0 h -0.12778 C 398.76888,700.05258 312.13083,570.0955 312.13083,419.82064 c 0,-18.65657 1.27785,-37.05758 3.96132,-54.94744 l 1.53342,-1.02228 c 58.26984,-36.0353 125.48462,-55.84193 199.08863,-55.84193 59.41991,0 114.23956,12.65069 163.69226,36.29086"
   id="path25" />
</svg>
