<?xml version="1.0" encoding="UTF-8" standalone="no"?>
<!-- Generator: Adobe Illustrator 26.2.1, SVG Export Plug-In . SVG Version: 6.00 Build 0)  -->

<svg
   version="1.1"
   id="Réteg_1"
   x="0px"
   y="0px"
   viewBox="0 0 1080 1080"
   style="enable-background:new 0 0 1080 1080;"
   xml:space="preserve"
   sodipodi:docname="logo_black.svg"
   inkscape:version="1.1.1 (3bf5ae0d25, 2021-09-20)"
   xmlns:inkscape="http://www.inkscape.org/namespaces/inkscape"
   xmlns:sodipodi="http://sodipodi.sourceforge.net/DTD/sodipodi-0.dtd"
   xmlns="http://www.w3.org/2000/svg"
   xmlns:svg="http://www.w3.org/2000/svg"><defs
   id="defs15" /><sodipodi:namedview
   id="namedview13"
   pagecolor="#ffffff"
   bordercolor="#666666"
   borderopacity="1.0"
   inkscape:pageshadow="2"
   inkscape:pageopacity="0.0"
   inkscape:pagecheckerboard="0"
   showgrid="false"
   inkscape:zoom="0.80833333"
   inkscape:cx="208.45361"
   inkscape:cy="540"
   inkscape:window-width="2560"
   inkscape:window-height="1376"
   inkscape:window-x="0"
   inkscape:window-y="0"
   inkscape:window-maximized="1"
   inkscape:current-layer="Réteg_1" />
<style
   type="text/css"
   id="style2">
	.st0{fill:none;stroke:#1DDDDD;stroke-width:45;stroke-linecap:round;stroke-miterlimit:10;}
	.st1{fill:none;stroke:#000000;stroke-width:45;stroke-linecap:round;stroke-miterlimit:10;}
</style>
<circle
   cx="838.56104"
   cy="567.13721"
   id="circle4"
   r="76.052238"
   style="stroke-width:1.26754" />
<path
   class="st0"
   d="m 1006.0027,233.14111 3.4224,129.28881 c 1.014,38.9134 0.3802,39.67392 -38.53316,40.68795 l -132.07739,3.42235"
   id="path6" />
<path
   class="st1"
   d="M 859.98242,538.49086 C 809.53444,711.00269 686.96358,853.22038 528.52141,931.8077 v 0 h -0.12676 C 317.60319,827.36262 174.11797,610.10672 174.11797,358.88082 c 0,-31.18142 2.28156,-61.98258 6.59119,-91.89646 l 2.66183,-1.77455 c 97.34687,-60.33478 209.65068,-93.41751 332.72855,-93.41751 136.64053,0 259.08464,39.92743 362.89594,112.93758"
   id="path8" />
<path
   class="st0"
   d="m 667.31675,643.3162 c -35.99806,49.43395 -83.53071,89.86839 -138.79534,117.2472 v 0 h -0.12676 C 403.28872,698.58082 317.34969,569.67228 317.34969,420.60988 c 0,-18.50604 1.26753,-36.75858 3.92936,-54.5041 l 1.52105,-1.01403 c 57.7997,-35.74455 124.47216,-55.39138 197.48231,-55.39138 58.94049,0 113.31784,12.54862 162.37154,35.99806"
   id="path10" />
</svg>
