<?xml version="1.0" encoding="utf-8"?>
<!-- Generator: Adobe Illustrator 26.2.1, SVG Export Plug-In . SVG Version: 6.00 Build 0)  -->
<svg version="1.1" id="Réteg_1" xmlns="http://www.w3.org/2000/svg" xmlns:xlink="http://www.w3.org/1999/xlink" x="0px" y="0px"
	 viewBox="0 0 1080 1080" style="enable-background:new 0 0 1080 1080;" xml:space="preserve">
<style type="text/css">
	.st0{fill:none;stroke:#00FFFF;stroke-width:45;stroke-linecap:round;stroke-miterlimit:10;}
	.st1{fill:none;stroke:#000000;stroke-width:45;stroke-linecap:round;stroke-miterlimit:10;}
	.st2{fill:none;stroke:#1DDDDD;stroke-width:45;stroke-linecap:round;stroke-miterlimit:10;}
	.st3{enable-background:new    ;}
	.st4{fill:none;stroke:#000000;stroke-width:15;stroke-linecap:round;stroke-miterlimit:10;}
</style>
<circle cx="-440" cy="-275.8" r="60"/>
<path class="st0" d="M-307.9-539.3l2.7,102c0.8,30.7,0.3,31.3-30.4,32.1l-104.2,2.7"/>
<path class="st1" d="M-423.1-298.4C-462.9-162.3-558.5-50.1-683.5,11.9h-0.1c-166.3-82.4-280.6-253.8-280.6-452
	c0-24.6,1.8-48.9,5.2-72.5l2.1-1.4c76.9-47.5,165.5-73.7,262.5-73.7c107.8,0,204.4,31.5,286.3,89.1"/>
<path class="st0" d="M-575.1-215.7c-28.4,39-65.9,70.9-109.5,92.5h-0.1c-98.7-48.9-166.5-150.6-166.5-268.2c0-14.6,1-29,3.1-43
	l1.2-0.8c45.6-28.2,98.2-43.7,155.8-43.7c46.5,0,89.4,9.9,128.1,28.4"/>
<circle cx="-440" cy="563.9" r="60"/>
<path class="st2" d="M-307.9,300.4l2.7,102c0.8,30.7,0.3,31.3-30.4,32.1l-104.2,2.7"/>
<path class="st1" d="M-423.1,541.3c-39.8,136.1-135.4,248.3-260.4,310.2h-0.1c-166.3-82.4-280.6-253.8-280.6-452
	c0-24.6,1.8-48.9,5.2-72.5l2.1-1.4C-880,278.1-791.5,252-694.4,252c107.8,0,204.4,31.5,286.3,89.1"/>
<path class="st2" d="M-575.1,624c-28.4,39-65.9,70.9-109.5,92.5h-0.1c-98.7-48.9-166.5-150.6-166.5-268.2c0-14.6,1-29,3.1-43
	l1.2-0.8c45.6-28.2,98.2-43.7,155.8-43.7c46.5,0,89.4,9.9,128.1,28.4"/>
<ellipse transform="matrix(0.6 -0.8 0.8 0.6 346.3217 1820.3374)" cx="1993.5" cy="563.9" rx="60" ry="60"/>
<path class="st1" d="M2125.4,300.4l2.7,102c0.8,30.7,0.3,31.3-30.4,32.1l-104.2,2.7"/>
<path class="st1" d="M2010.3,541.3c-39.8,136.1-135.4,248.3-260.4,310.2h-0.1c-166.3-82.4-280.6-253.8-280.6-452
	c0-24.6,1.8-48.9,5.2-72.5l2.1-1.4c76.9-47.5,165.5-73.7,262.5-73.7c107.8,0,204.4,31.5,286.3,89.1"/>
<path class="st1" d="M1858.3,624c-28.4,39-65.9,70.9-109.5,92.5h-0.1c-98.7-48.9-166.5-150.6-166.5-268.2c0-14.6,1-29,3.1-43
	l1.2-0.8c45.6-28.2,98.2-43.7,155.8-43.7c46.5,0,89.4,9.9,128.1,28.4"/>
<g>
	<g class="st3">
		<path d="M388.4,626.5c-1.5,0-2.6-0.4-3.4-1.2c-0.8-0.8-1.2-1.7-1.2-2.8V491.2c0-1.1,0.4-2,1.2-2.8c0.8-0.8,1.9-1.2,3.4-1.2h59.5
			c1.1,0,2,0.4,2.8,1.2c0.8,0.8,1.2,1.9,1.2,3.4v6.6c0,1.5-0.4,2.6-1.2,3.4c-0.8,0.8-1.7,1.2-2.8,1.2h-47.4v42.4h42.6
			c1.1,0,2,0.4,2.8,1.2s1.2,1.9,1.2,3.4v6.4c0,1.5-0.4,2.6-1.2,3.4c-0.8,0.8-1.7,1.2-2.8,1.2h-42.6v50h49c1.1,0,2,0.4,2.8,1.2
			s1.2,1.9,1.2,3.4v6.6c0,1.5-0.4,2.6-1.2,3.4s-1.7,1.2-2.8,1.2H388.4z"/>
	</g>
	<g class="st3">
		<path d="M519.9,487c0.9,0,1.8,0.4,2.5,1.1c0.7,0.7,1.1,1.6,1.1,2.5v121.6h28.3c0.9,0,1.8,0.3,2.5,1c0.7,0.7,1.1,1.5,1.1,2.6v7.2
			c0,1.1-0.4,1.9-1.1,2.6s-1.6,1-2.5,1h-71.2c-0.9,0-1.8-0.3-2.5-1c-0.7-0.7-1.1-1.5-1.1-2.6v-7.2c0-1.1,0.4-1.9,1.1-2.6
			c0.7-0.7,1.6-1,2.5-1h27.1V501.3h-21.5c-0.9,0-1.8-0.4-2.5-1.1s-1.1-1.6-1.1-2.5v-7.2c0-0.9,0.4-1.8,1.1-2.5s1.6-1.1,2.5-1.1
			H519.9z"/>
	</g>
	<g class="st3">
		<path d="M660.2,550.1c0-2.8-1-5.3-3.1-7.5c-2.1-2.2-4.3-3.3-6.7-3.3c-4.1,0-7.3,1.6-9.5,4.7c-2.2,3.1-3.3,7.1-3.3,11.8v67.1
			c0,2.4-1.5,3.6-4.6,3.6h-6.4c-3.1,0-4.6-1.2-4.6-3.6v-72.8c0-2.9-1-5.4-2.9-7.6c-1.9-2.1-4.4-3.2-7.5-3.2c-4,0-7.1,1.6-9.5,4.8
			c-2.3,3.2-3.5,7.1-3.5,11.7v67.1c0,2.4-1.5,3.6-4.6,3.6h-6.8c-3.1,0-4.6-1.2-4.6-3.6v-92.3c0-2.4,1.5-3.6,4.6-3.6h6.6
			c2.9,0,4.4,1.2,4.4,3.6v3.8c4.1-6,9.7-9,16.7-9c3.5,0,6.4,0.6,8.9,1.9c2.5,1.3,4.1,2.5,5.1,3.8s2,3.1,3.2,5.5
			c5.3-7.4,12.1-11.1,20.3-11.1c7.4,0,13.2,2.5,17.3,7.5c4.1,5,6.2,11.3,6.2,19v71c0,2.4-1.5,3.6-4.6,3.6h-6.8
			c-3.1,0-4.6-1.2-4.6-3.6V550.1z"/>
	</g>
	<g class="st3">
		<path d="M778.1,622.9c0,2.4-1.5,3.6-4.6,3.6h-6.4c-3.1,0-4.6-1.2-4.6-3.6v-5.2c-0.7,0.8-1.6,1.8-2.9,3c-1.3,1.2-4.1,2.8-8.6,4.8
			c-4.4,2-9.3,3-14.6,3c-9.6,0-17.7-3-24.5-8.9c-6.8-5.9-10.1-13.3-10.1-22.2c0-8.6,3.2-16,9.6-22s14.1-9.4,23.3-10l27.3-1.8v-5.2
			c0-5.2-1.8-9.6-5.4-13.3c-3.6-3.7-8.3-5.6-14.1-5.6c-5,0-9.2,1.1-12.5,3.2c-3.3,2.1-5.6,4.8-6.8,8c-1.1,2.3-2.3,3.4-3.6,3.4h-8.4
			c-1.1,0-1.9-0.3-2.6-1c-0.7-0.7-1-1.5-1-2.6c0-5.2,3.3-10.7,10-16.6c6.6-5.9,14.9-8.9,24.9-8.9c11.4,0,20.2,3.1,26.4,9.2
			c6.2,6.1,9.3,13.8,9.3,23.1V622.9z M735.9,579.7c-5.2,0.4-9.5,2.2-12.9,5.5c-3.4,3.3-5.2,7.3-5.2,12c0,4.6,1.9,8.6,5.7,11.9
			s8.4,5,13.8,5c7,0,12.9-2,17.6-6.1c4.7-4,7.1-8.3,7.1-12.8v-17.3L735.9,579.7z"/>
		<path d="M819.8,625.3c-5-2.1-8.8-4.8-11.3-8c-2.6-3.2-4.5-6.4-5.8-9.6c-1.3-3.2-1.9-6.2-1.9-9.2c0-1.1,0.3-1.9,1-2.6
			c0.7-0.7,1.5-1,2.6-1h9c2.1,0,3.3,1.1,3.6,3.4c0.4,3.8,2.2,7.4,5.4,10.7s8,5,14.5,5c5.6,0,10.1-1.4,13.5-4.2
			c3.4-2.8,5.2-6.3,5.2-10.5c0-3.8-1.8-7.1-5.3-9.8c-3.5-2.7-7.8-4.9-12.8-6.7c-5-1.8-10.1-3.7-15-5.9c-5-2.1-9.2-5.2-12.7-9.4
			c-3.5-4.1-5.3-9.2-5.3-15.1c0-8.2,3.1-14.9,9.3-20c6.2-5.1,14.3-7.7,24.4-7.7c10.9,0,19.2,3,25,9c5.8,6,8.7,11.9,8.7,17.9
			c0,0.9-0.3,1.8-1,2.5s-1.5,1.1-2.6,1.1h-9.2c-2,0-3.2-1.1-3.6-3.4c-0.7-3.4-2.4-6.4-5.3-9c-2.9-2.5-6.9-3.8-12-3.8
			c-5,0-9.1,1.1-12.2,3.4c-3.1,2.3-4.7,5.2-4.7,8.8c0,3.6,1.8,6.6,5.3,9.2c3.5,2.5,7.8,4.6,12.7,6.4c5,1.7,9.9,3.7,14.8,5.9
			c4.9,2.2,9.1,5.6,12.6,10.1s5.3,10.2,5.3,16.8c0,8-3.4,14.7-10.1,20.3s-15.1,8.4-24.9,8.4C830.4,628.5,824.7,627.4,819.8,625.3z"
			/>
	</g>
	<g class="st3">
		<path d="M918.8,658.7c-0.8,2.4-2.4,3.6-4.8,3.6h-8c-2.3,0-3.4-0.8-3.4-2.4c0-0.8,0.3-2.2,1-4.2l11.7-32.4L882,533.5
			c-0.7-2-1-3.4-1-4.2c0-1.6,1.1-2.4,3.4-2.4h9.2c2.4,0,4,1.2,4.8,3.6l26.1,72.4l25.9-72.4c0.8-2.4,2.4-3.6,4.8-3.6h8.6
			c2.3,0,3.4,0.8,3.4,2.4c0,0.8-0.3,2.2-1,4.2L918.8,658.7z"/>
	</g>
</g>
<circle cx="278.3" cy="520.6" r="21"/>
<path class="st4" d="M324.5,428.5l0.9,35.6c0.3,10.7,0.1,10.9-10.6,11.2l-36.4,1"/>
<path class="st4" d="M284.2,512.7c-13.9,47.5-47.3,86.7-91,108.4l0,0c-58.1-28.8-98-88.7-98-157.9c0-8.6,0.6-17.1,1.8-25.3l0.7-0.5
	c26.9-16.6,57.8-25.7,91.7-25.7c37.7,0,71.4,11,100,31.1"/>
<path class="st4" d="M231.1,541.5c-9.9,13.6-23,24.8-38.2,32.3l0,0c-34.5-17.1-58.2-52.6-58.2-93.7c0-5.1,0.4-10.1,1.1-15l0.4-0.3
	c15.9-9.9,34.3-15.3,54.4-15.3c16.2,0,31.2,3.4,44.7,9.9"/>
</svg>
