<svg width="1500" height="500" viewBox="0 0 1500 500" fill="none" xmlns="http://www.w3.org/2000/svg">
<rect width="1500" height="500" fill="#1D1E20"/>
<path d="M594.143 195.208H635.111V297.147H661.263V309H594.143V297.147H621.406V207.136H594.143V195.208ZM689.414 228.842L689.785 236.399C691.414 233.583 693.538 231.386 696.156 229.805C698.823 228.225 702.033 227.41 705.786 227.36C707.91 227.36 709.812 227.607 711.491 228.101C713.219 228.546 714.726 229.212 716.01 230.101C716.948 230.793 717.788 231.633 718.529 232.62C719.319 233.608 719.986 234.719 720.529 235.954C721.22 234.818 722.035 233.756 722.974 232.768C723.912 231.781 724.925 230.916 726.011 230.176C727.394 229.336 728.925 228.669 730.604 228.175C732.333 227.681 734.21 227.41 736.235 227.36C739 227.36 741.495 227.78 743.717 228.62C745.94 229.41 747.816 230.595 749.347 232.176C751.027 233.954 752.311 236.275 753.2 239.14C754.089 241.955 754.533 245.289 754.533 249.141V309H741.495V248.993C741.495 247.313 741.297 245.832 740.902 244.548C740.507 243.264 739.939 242.202 739.198 241.362C738.408 240.572 737.42 239.979 736.235 239.584C735.099 239.189 733.765 238.991 732.234 238.991C730.604 238.991 729.197 239.214 728.011 239.658C726.826 240.103 725.838 240.695 725.048 241.436C724.258 242.226 723.641 243.14 723.196 244.177C722.752 245.165 722.455 246.276 722.307 247.511C722.307 247.758 722.307 248.005 722.307 248.252C722.307 248.449 722.307 248.696 722.307 248.993V309H709.268V248.919C709.268 247.239 709.071 245.758 708.676 244.474C708.33 243.189 707.762 242.128 706.972 241.288C706.231 240.498 705.293 239.93 704.157 239.584C703.07 239.189 701.786 238.991 700.304 238.991C698.674 238.991 697.242 239.189 696.008 239.584C694.822 239.93 693.81 240.448 692.97 241.14C692.328 241.683 691.76 242.3 691.266 242.992C690.822 243.683 690.451 244.424 690.155 245.214V309H677.116V228.842H689.414ZM826.912 309C826.369 307.963 825.925 306.679 825.579 305.148C825.283 303.567 825.06 301.937 824.912 300.258C823.529 301.641 821.974 302.95 820.245 304.185C818.566 305.419 816.714 306.506 814.689 307.444C812.614 308.383 810.417 309.123 808.095 309.667C805.774 310.21 803.305 310.482 800.687 310.482C796.44 310.482 792.587 309.864 789.13 308.63C785.722 307.395 782.833 305.716 780.462 303.592C778.042 301.518 776.165 299.048 774.832 296.184C773.548 293.27 772.906 290.133 772.906 286.775C772.906 282.379 773.77 278.527 775.499 275.218C777.277 271.909 779.771 269.143 782.981 266.921C786.191 264.748 790.044 263.118 794.538 262.031C799.082 260.945 804.144 260.401 809.725 260.401H824.69V254.104C824.69 251.684 824.245 249.511 823.356 247.585C822.467 245.659 821.208 244.004 819.578 242.622C817.948 241.288 815.948 240.251 813.577 239.51C811.256 238.769 808.639 238.399 805.725 238.399C803.008 238.399 800.563 238.745 798.39 239.436C796.267 240.127 794.464 241.041 792.982 242.177C791.501 243.313 790.34 244.671 789.5 246.252C788.71 247.783 788.315 249.388 788.315 251.067H774.536C774.585 248.153 775.326 245.289 776.758 242.473C778.24 239.658 780.363 237.115 783.129 234.843C785.846 232.62 789.155 230.818 793.056 229.435C797.007 228.052 801.477 227.36 806.465 227.36C811.009 227.36 815.232 227.928 819.134 229.064C823.035 230.151 826.418 231.805 829.283 234.028C832.098 236.3 834.321 239.115 835.951 242.473C837.58 245.832 838.395 249.758 838.395 254.253V291.516C838.395 294.183 838.642 297.023 839.136 300.036C839.63 302.999 840.321 305.592 841.21 307.815V309H826.912ZM802.687 298.554C805.354 298.554 807.848 298.209 810.17 297.517C812.491 296.826 814.615 295.912 816.541 294.776C818.418 293.64 820.047 292.356 821.43 290.924C822.813 289.442 823.9 287.911 824.69 286.331V270.106H811.948C807.206 270.106 803.058 270.526 799.502 271.366C795.995 272.156 793.205 273.391 791.13 275.07C789.649 276.255 788.513 277.663 787.722 279.293C786.982 280.922 786.611 282.775 786.611 284.849C786.611 286.824 786.932 288.652 787.574 290.331C788.266 292.01 789.278 293.443 790.612 294.628C791.945 295.863 793.624 296.826 795.649 297.517C797.674 298.209 800.02 298.554 802.687 298.554ZM918.627 287.738C918.627 286.108 918.306 284.651 917.664 283.367C917.022 282.034 915.936 280.824 914.405 279.737C912.873 278.651 910.849 277.663 908.33 276.774C905.811 275.835 902.675 274.996 898.921 274.255C894.328 273.317 890.13 272.181 886.327 270.847C882.573 269.514 879.363 267.909 876.696 266.032C873.98 264.204 871.881 262.056 870.399 259.587C868.917 257.068 868.177 254.154 868.177 250.845C868.177 247.585 868.942 244.548 870.473 241.733C872.004 238.868 874.153 236.374 876.918 234.25C879.684 232.126 882.969 230.447 886.772 229.212C890.624 227.978 894.847 227.36 899.44 227.36C904.379 227.36 908.824 228.002 912.775 229.287C916.726 230.571 920.084 232.349 922.85 234.621C925.616 236.892 927.739 239.559 929.221 242.622C930.752 245.634 931.518 248.894 931.518 252.4H917.812C917.812 250.672 917.368 248.993 916.479 247.363C915.59 245.684 914.355 244.202 912.775 242.918C911.194 241.634 909.268 240.597 906.996 239.806C904.774 239.016 902.255 238.621 899.44 238.621C896.526 238.621 893.958 238.942 891.735 239.584C889.562 240.226 887.759 241.09 886.327 242.177C884.845 243.264 883.734 244.523 882.993 245.955C882.252 247.388 881.882 248.869 881.882 250.4C881.882 251.981 882.178 253.388 882.771 254.623C883.364 255.858 884.401 256.969 885.883 257.957C887.315 258.945 889.241 259.834 891.661 260.624C894.13 261.414 897.242 262.179 900.995 262.92C905.934 263.957 910.355 265.167 914.256 266.55C918.158 267.884 921.442 269.489 924.109 271.366C926.776 273.292 928.801 275.514 930.184 278.033C931.617 280.552 932.333 283.466 932.333 286.775C932.333 290.331 931.518 293.566 929.888 296.48C928.307 299.394 926.085 301.888 923.22 303.962C920.356 306.037 916.923 307.642 912.923 308.778C908.922 309.914 904.551 310.482 899.81 310.482C894.377 310.482 889.537 309.766 885.29 308.333C881.042 306.852 877.462 304.901 874.548 302.481C871.584 300.11 869.313 297.344 867.732 294.183C866.201 291.022 865.436 287.738 865.436 284.33H879.141C879.339 287.145 880.079 289.516 881.363 291.442C882.697 293.368 884.351 294.924 886.327 296.11C888.253 297.295 890.402 298.134 892.772 298.628C895.143 299.122 897.489 299.369 899.81 299.369C903.465 299.369 906.65 298.949 909.367 298.11C912.083 297.221 914.207 296.011 915.738 294.48C916.676 293.541 917.393 292.504 917.886 291.368C918.38 290.232 918.627 289.022 918.627 287.738ZM962.929 341.374C961.645 341.374 960.139 341.226 958.41 340.93C956.681 340.633 955.373 340.387 954.484 340.189L956.706 329.002C957.941 329.101 959.151 329.175 960.336 329.225C961.571 329.323 962.534 329.373 963.225 329.373C965.102 329.373 966.806 328.854 968.337 327.817C969.917 326.78 971.325 325.545 972.56 324.113C973.745 322.681 974.758 321.199 975.597 319.668C976.486 318.137 977.178 316.878 977.672 315.89L983.154 305.222L948.631 228.842H963.966L985.969 280.552L989.525 290.257L993.303 280.848L1013.97 228.842H1029.31L988.636 321.372C987.697 323.446 986.487 325.644 985.006 327.965C983.573 330.287 981.82 332.435 979.746 334.411C977.672 336.386 975.251 338.041 972.486 339.374C969.72 340.708 966.534 341.374 962.929 341.374Z" fill="#DADADB"/>
<rect x="465" y="195.222" width="113.823" height="11.3778" fill="#1DDDDD"/>
<rect x="493.457" y="246.422" width="56.9113" height="11.3778" fill="#1DDDDD"/>
<rect x="465" y="297.622" width="113.823" height="11.3778" fill="#1DDDDD"/>
</svg>
